<svg xmlns="http://www.w3.org/2000/svg" width="256" height="256" viewBox="0 0 256 256">
  <g stroke-linecap="round" stroke-linejoin="round" stroke-width="10" transform="translate(25.6 0) scale(.8)">
    <path fill="none" stroke="#ddd" d="M64,208l28-70h64l25-62.5"/>
    <path fill="none" stroke="#a852ff" d="M128,208h64a48,48,0,0,0,0-96,64,64,0,0,0-11.5-36.5"/>
    <path fill="none" stroke="#52a8ff" d="M139,48.9A64,64,0,0,0,64,112a48,48,0,0,0,0,96h36L160,58"/>
    <circle cx="8" cy="8" r="12" fill="#1f1a24" stroke="#aaa" stroke-width="6" transform="translate(120 130)"/>
  </g>
  <g stroke="#999" stroke-linecap="round" stroke-linejoin="round" stroke-width="8">
    <path fill="none" d="M35 195a15 15 0 1 0 0 20"/>
    <path fill="none" d="M50 191v28"/>
    <path fill="none" stroke-linecap="butt" d="M75 220 a10 10 0 0 0 0 -20a10 10 0 0 0 0 20"/>
    <path fill="none" d="M97.5 200 v10 a10 10 0 0 0 20 0v-10"/>
    <path fill="none" d="M150 190 v30 m0 -10 a10 10 0 0 0 -20 0a10 10 0 0 0 20 0"/>
  </g>
  <g stroke="#a852ff" stroke-linecap="round" stroke-linejoin="round" stroke-width="8">
    <path fill="none" d="M170 190 v30 h10 a15 15 0 0 0 0 -30 z"/>
    <circle cx="210" cy="190" r="1" fill="#a852ff"/>
    <path fill="none" d="M210 203 v17"/>
    <path fill="none" d="M245 210 a10 10 0 0 0 -20 0a10 10 0 0 0 20 0m0 -10v20"/>
  </g>
</svg>
