<svg xmlns="http://www.w3.org/2000/svg" width="256" height="256" viewBox="0 0 256 256">
    <path stroke="#ffffff" stroke-width="5" fill="#fff" d="m128 208 l64 0 a48 48 0 0 0 0 -96 a64 64 0 0 0 -128 0 a48 48 0 0 0 0 96" />
    <path stroke="#dddddd" stroke-width="5" stroke-linecap="round" fill="none" d="m64 208 l28 -70 l64 0 l25 -62.5" />
    <path stroke="#a852ff" stroke-width="5" stroke-linecap="round" fill="none" d="m128 208 l64 0 a48 48 0 0 0 0 -96 a64 64 0 0 0 -11.5 -36.5" />
    <path stroke="#52a8ff" stroke-width="5" stroke-linecap="round" fill="none" d="m139 48.9 a64 64 0 0 0 -75 63.1 a48 48 0 0 0 0 96 l36 0 l60 -150" />
    <circle stroke="#aaa" stroke-width="5" stroke-linecap="round" fill="#fff" cx="128" cy="138" r="8"/>
</svg>
