<svg xmlns="http://www.w3.org/2000/svg" width="256" height="256" viewBox="0 0 256 256">
    <g transform="translate(25.6 0) scale(.8)" stroke-width="10" stroke-linecap="round" stroke-linejoin="round">
        <path d="M128,208h64a48,48,0,0,0,0-96,64,64,0,1,0-128,0,48,48,0,1,0,0,96" fill="#fff"/>
        <path d="M64,208l28-70h64l25-62.5" fill="none" stroke="#ddd"/>
        <path d="M128,208h64a48,48,0,0,0,0-96,64,64,0,0,0-11.5-36.5" fill="none" stroke="#a852ff"/>
        <path d="M139,48.9A64,64,0,0,0,64,112a48,48,0,0,0,0,96h36L160,58" fill="none" stroke="#52a8ff"/>
        <circle cx="8" cy="8" r="12" transform="translate(120 130)" fill="#fff" stroke="#aaa" stroke-width="6"/>
    </g>
    <g stroke-width="8" stroke="#999" stroke-linecap="round" stroke-linejoin="round">
        <path d="M35 195a15 15 0 1 0 0 20" fill="none"/>
        <path d="M50 191v28" fill="none"/>
        <path d="M75 220 a10 10 0 0 0 0 -20a10 10 0 0 0 0 20" fill="none" stroke-linecap="butt"/>
        <path d="M97.5 200 v10 a10 10 0 0 0 20 0v-10" fill="none"/>
        <path d="M150 190 v30 m0 -10 a10 10 0 0 0 -20 0a10 10 0 0 0 20 0" fill="none"/>
    </g>
     <g stroke-width="8" stroke="#a852ff" stroke-linecap="round" stroke-linejoin="round">
        <path d="M170 190 v30 h10 a15 15 0 0 0 0 -30 z" fill="none"/>
        <circle cx="210" cy="190" r="1"/>
        <path d="M210 203 v17" fill="none"/>
        <path d="M245 210 a10 10 0 0 0 -20 0a10 10 0 0 0 20 0m0 -10v20" fill="none"/>
    </g>
    </svg>